<?xml version="1.0" encoding="utf-8"?>
<!-- Generator: Adobe Illustrator 22.1.0, SVG Export Plug-In . SVG Version: 6.00 Build 0)  -->
<svg version="1.1" id="圖層_1" xmlns="http://www.w3.org/2000/svg" xmlns:xlink="http://www.w3.org/1999/xlink" x="0px" y="0px"
	 viewBox="0 0 60 58.4" style="enable-background:new 0 0 60 58.4;" xml:space="preserve">
<style type="text/css">
	.st0{fill:url(#SVGID_1_);}
	.st1{fill:#C48047;}
</style>
<g>
	
		<linearGradient id="SVGID_1_" gradientUnits="userSpaceOnUse" x1="41.425" y1="712.2214" x2="19.8951" y2="756.4556" gradientTransform="matrix(1 0 0 1 0 -707.3054)">
		<stop  offset="0" style="stop-color:#FDF9F6"/>
		<stop  offset="1" style="stop-color:#BF814B"/>
	</linearGradient>
	<circle class="st0" cx="29.8" cy="28.8" r="26.7"/>
	<path class="st1" d="M55.4,18.8c0.4-0.1,1.4-0.5,1.7-1.3c0.2-0.8-0.1-1.7-1.1-2.7c-2.3-2.5-6.5-3.3-11.4-4.3
		c-3.3-0.7-7.1-1.4-10.8-2.7c-4.2-1.5-5.5-3.1-5.9-4.1c-0.3-0.8,0-1.5,0.3-1.9C29,0.6,31,0.2,31.6,0.1l-0.2,0.4
		c-1.2,0.1-2.1,0.8-2.4,1.8c-0.2,0.6-0.2,1.8,1.7,3.1c3.3,2.3,10.2,3.9,15.4,4.9c4.3,0.8,11.7,2.8,12.1,6.7c0.2,1.7-2,2.4-2.6,2.6
		L55.4,18.8z"/>
	<path class="st1" d="M29.9,57.8c0.4-0.1,1.4-0.5,1.7-1.3c0.2-0.8-0.1-1.7-1.1-2.7c-2.3-2.5-6.5-3.3-11.4-4.3
		c-3.3-0.7-7.1-1.4-10.8-2.7c-4.2-1.5-5.5-3.1-5.9-4.1c-0.3-0.8,0-1.5,0.3-1.9c0.8-1.2,2.8-1.6,3.4-1.7l-0.2,0.4
		c-1.2,0.1-2.1,0.8-2.4,1.8c-0.2,0.6-0.2,1.8,1.7,3.1c3.3,2.3,10.2,3.9,15.4,4.9c4.3,0.8,11.7,2.8,12.1,6.7c0.2,1.7-2,2.4-2.6,2.6
		L29.9,57.8z"/>
	<path class="st1" d="M57,32.4L57,32.4c0.6,0,1.7-0.2,1.7-2c0-2.5-4.6-5.4-28.8-13.4c-6.1-2-10.6-4.1-13.3-6.1
		c-2.2-1.7-3.1-3.3-2.7-4.7c0.2-0.7,1-1.4,3.4-1.4c0.4,0,0.7,0,0.9,0l-0.8,0.4c-0.3,0-2.1,0.3-2.3,1.3C15,6.9,14.7,11,30.5,16.3
		c2.9,1,5.6,1.9,8.2,2.7c6.6,2.2,11.9,3.9,15.6,5.7c3.9,1.9,5.7,3.8,5.7,6.1c0,1.9-2.5,2.1-3.1,2.2L57,32.4z"/>
	<path class="st1" d="M43.1,52.3L43.1,52.3c0.6,0,1.7-0.2,1.7-2c0-2.5-4.6-5.4-28.8-13.4C0.4,31.7-0.3,27.5,0.1,26
		c0.3-1.1,2.1-1.1,2.6-1.1l0,0v0.6c-0.1,0-0.1,0-0.2,0c-0.7,0-1.1,0.3-1.2,0.9c-0.1,0.4-0.4,4.5,15.4,9.8c2.9,1,5.6,1.9,8.2,2.7
		c6.6,2.2,11.9,3.9,15.6,5.7c3.9,1.9,5.7,3.8,5.7,6.1c0,1.9-2.5,2.1-3.1,2.2L43.1,52.3z"/>
	<path class="st1" d="M55.9,45.5L55.9,45.5c0.5,0,1.1-0.1,1.5-0.5c0.3-0.4,0.4-0.9,0.2-1.5c-0.9-3.9-13.2-9.9-40-19.4
		c-6-2.1-10.7-4.5-13.7-6.8c-2.5-1.9-3.6-3.8-3.2-5.1c0.2-0.7,1-1.4,3.4-1.4c0.4,0,0.7,0,0.9,0l-0.8,0.4c-0.3,0-2.1,0.3-2.3,1.3
		c-0.2,1.2,2.3,5.7,16.3,10.9c1.3,0.5,2.8,1,4.5,1.6c12.6,4.6,36.2,13.1,36.2,19c0,0.9-0.5,1.5-1.5,1.9c-0.6,0.2-1.3,0.3-1.6,0.3
		L55.9,45.5z"/>
</g>
</svg>
